<?xml version="1.0" standalone="no"?>
<!DOCTYPE svg PUBLIC "-//W3C//DTD SVG 20010904//EN"
 "http://www.w3.org/TR/2001/REC-SVG-20010904/DTD/svg10.dtd">
<svg version="1.0" xmlns="http://www.w3.org/2000/svg"
 width="16.000000pt" height="16.000000pt" viewBox="0 0 16.000000 16.000000"
 preserveAspectRatio="xMidYMid meet">
<metadata>
Created by potrace 1.11, written by Peter Selinger 2001-2013
</metadata>
<g transform="translate(0.000000,16.000000) scale(0.003200,-0.003200)"
fill="#000000" stroke="none">
<path d="M0 2500 l0 -2500 741 0 c588 0 740 3 737 13 -3 6 -17 17 -33 22 -16
6 -41 21 -56 35 -88 80 -112 100 -123 100 -7 0 -25 14 -40 31 -25 28 -29 29
-45 15 -22 -20 -41 -20 -78 -2 -15 8 -44 21 -64 29 -79 33 -158 132 -143 179
4 14 2 18 -5 14 -7 -4 -9 -1 -5 8 3 9 -6 26 -24 43 -25 23 -29 32 -22 51 5 12
18 25 27 29 10 4 22 12 26 20 18 29 97 -1 97 -37 0 -5 5 -10 11 -10 18 0 107
-69 113 -88 4 -10 15 -18 26 -19 22 -2 43 -19 52 -45 4 -9 17 -18 30 -20 12
-2 32 -17 43 -35 11 -18 28 -32 38 -33 10 0 26 -13 35 -30 9 -16 24 -30 33
-30 18 0 59 -36 59 -51 0 -6 -9 -24 -21 -41 -26 -35 -17 -50 11 -20 13 13 33
22 51 22 25 0 33 -6 42 -30 8 -21 18 -30 34 -30 30 0 55 -37 42 -62 -14 -26
-4 -34 26 -20 15 7 27 8 30 2 6 -10 1745 -15 1745 -6 0 3 -19 44 -41 93 -23
48 -49 106 -59 128 -9 22 -27 63 -40 90 -12 28 -26 59 -30 70 -5 11 -22 49
-38 85 -16 36 -56 130 -88 210 -37 93 -67 153 -83 168 -14 13 -57 49 -96 80
-38 31 -72 59 -75 62 -21 21 -160 130 -166 130 -4 0 -16 8 -27 17 -18 17 -19
16 -17 -37 3 -82 2 -85 -23 -111 -28 -29 -118 -167 -177 -269 -24 -41 -58 -97
-75 -125 -18 -27 -49 -77 -70 -110 -36 -57 -61 -84 -77 -85 -11 0 -35 51 -42
93 -4 20 -11 37 -16 37 -11 0 -51 -41 -90 -91 -14 -18 -31 -38 -38 -45 -17
-18 -70 -88 -116 -156 -21 -31 -49 -67 -61 -78 -21 -20 -25 -21 -51 -7 -16 9
-67 52 -114 96 -47 44 -90 81 -95 81 -10 0 -71 67 -88 97 -4 7 -3 20 2 30 21
37 51 112 51 127 0 9 -13 22 -30 31 -33 17 -36 14 -59 -57 -7 -21 -17 -40 -22
-44 -12 -7 -84 35 -128 76 -18 17 -73 63 -122 102 -98 78 -99 80 -78 179 l11
52 -61 58 c-75 72 -79 94 -36 178 13 25 33 65 44 89 12 24 33 59 48 79 20 26
27 48 28 82 1 25 9 71 18 101 17 55 147 557 147 567 0 3 -10 -7 -22 -23 -21
-27 -132 -161 -162 -194 -7 -8 -25 -33 -38 -55 -30 -48 -177 -227 -224 -273
-36 -35 -55 -39 -76 -19 -41 41 -285 207 -303 207 -30 0 -28 5 123 247 87 139
161 256 220 343 28 44 52 83 52 87 0 4 9 19 20 33 11 14 20 32 20 41 0 9 -52
56 -116 105 -64 49 -161 123 -214 164 -56 43 -112 95 -131 123 -31 45 -32 49
-19 90 15 51 49 118 197 396 118 219 177 338 178 356 0 6 5 15 12 20 6 6 13
19 15 30 2 11 6 22 9 25 3 3 16 28 29 55 13 28 32 59 42 70 10 10 16 25 14 32
-3 7 -1 13 4 13 14 0 52 79 44 92 -4 6 -3 8 3 5 12 -8 36 50 27 64 -3 5 1 9 9
9 14 0 40 49 40 76 0 8 3 12 5 9 6 -5 70 114 74 137 2 7 5 15 8 18 18 18 60
112 54 122 -4 6 -3 8 4 4 6 -3 15 9 23 31 6 21 15 40 19 43 15 11 40 71 34 82
-4 6 -3 8 3 5 6 -4 14 0 17 9 9 23 8 26 -6 19 -7 -4 -5 0 5 8 9 8 17 19 17 26
0 6 5 11 10 11 6 0 10 7 10 16 0 9 9 27 20 41 11 14 20 33 20 42 0 9 7 26 15
38 8 12 13 27 10 35 -3 8 3 14 17 16 17 2 651 17 952 22 16 0 35 5 41 10 13
11 62 -11 85 -39 8 -9 41 -34 73 -56 31 -21 57 -42 57 -47 0 -4 5 -8 11 -8 6
0 33 -17 60 -37 27 -21 76 -58 109 -83 34 -25 77 -58 96 -74 30 -25 37 -27 46
-15 8 11 9 11 4 -3 -3 -11 2 -21 14 -28 24 -13 28 -13 33 3 2 6 3 3 1 -9 -3
-15 12 -31 59 -65 34 -24 66 -46 71 -48 6 -2 20 -13 33 -25 12 -12 33 -29 45
-38 13 -10 55 -41 93 -70 39 -29 73 -57 76 -62 4 -5 14 -6 23 -3 9 4 15 2 13
-5 -2 -11 257 -209 371 -283 9 -5 27 -20 41 -33 15 -13 38 -31 54 -40 15 -9
27 -20 27 -24 0 -4 6 -8 14 -8 8 0 16 -4 18 -8 1 -5 26 -23 53 -42 28 -19 55
-39 61 -45 6 -5 23 -19 39 -30 21 -16 179 -136 240 -183 6 -4 26 -19 45 -32
19 -13 40 -29 46 -35 6 -5 37 -28 68 -50 76 -54 185 -132 216 -156 14 -10 56
-41 93 -69 92 -68 147 -120 159 -150 12 -31 13 -582 1 -607 -5 -10 -8 -48 -8
-86 1 -37 -1 -63 -5 -58 -3 6 -11 6 -20 0 -13 -7 -13 -10 -1 -18 19 -12 -37
-81 -213 -261 -77 -80 -247 -256 -376 -390 -129 -134 -316 -327 -416 -428
l-180 -185 22 -66 c12 -36 52 -156 87 -266 36 -110 79 -237 96 -282 51 -139
50 -156 -3 -278 -25 -58 -46 -108 -46 -110 0 -3 248 -5 550 -5 l550 0 0 2365
c0 1570 -3 2365 -10 2365 -5 0 -10 -7 -10 -15 0 -12 -6 -14 -27 -8 -16 4 -38
7 -49 6 -60 -2 -91 237 -35 272 6 3 11 1 11 -5 0 -6 5 -8 10 -5 6 3 10 10 10
16 0 6 -547 9 -1460 9 -803 0 -1460 -4 -1460 -8 0 -4 8 -18 17 -31 9 -14 11
-21 5 -17 -6 3 -13 2 -17 -4 -12 -20 -27 2 -21 31 l6 29 -985 0 -985 0 0
-2500z m1852 2438 c-9 -9 -12 -7 -12 12 0 19 3 21 12 12 9 -9 9 -15 0 -24z
m78 20 c0 -4 -4 -8 -9 -8 -6 0 -12 4 -15 8 -3 5 1 9 9 9 8 0 15 -4 15 -9z
m-223 -14 c-3 -3 -12 -4 -19 -1 -8 3 -5 6 6 6 11 1 17 -2 13 -5z"/>
<path d="M1537 4614 c-13 -13 14 -45 32 -39 22 7 46 -19 37 -41 -4 -11 -12
-14 -24 -9 -69 29 -70 29 -91 10 -39 -34 -22 -94 32 -110 12 -4 29 -16 38 -28
20 -24 49 -17 49 13 0 11 8 37 19 58 34 68 34 77 0 116 -29 34 -74 48 -92 30z
m37 -120 c8 -21 -11 -44 -35 -44 -13 0 -19 7 -19 23 0 13 3 27 7 30 12 13 41
7 47 -9z"/>
<path d="M1702 4507 c-5 -6 -26 -45 -46 -85 -29 -58 -35 -77 -25 -88 19 -23
26 -17 60 46 21 40 38 60 50 60 28 0 24 -31 -12 -96 -27 -50 -29 -59 -16 -72
19 -18 27 -13 52 35 25 49 45 73 62 73 22 0 15 -40 -18 -98 -28 -49 -29 -56
-15 -70 21 -21 35 -8 75 77 33 67 34 70 17 95 -10 16 -26 26 -40 26 -17 0 -27
9 -36 29 -7 17 -22 32 -36 35 -13 4 -24 11 -24 16 0 17 -37 31 -48 17z"/>
<path d="M1580 4327 c0 -10 16 -51 35 -92 68 -143 223 -266 355 -282 54 -6 72
12 23 23 -16 3 -61 22 -102 43 -112 55 -228 169 -290 286 -12 22 -21 32 -21
22z"/>
<path d="M1934 4306 c-8 -22 15 -48 36 -41 23 7 48 -21 32 -37 -9 -9 -20 -8
-44 4 -40 19 -73 9 -89 -26 -15 -32 9 -73 51 -87 16 -6 31 -17 34 -25 7 -18
46 -18 46 0 0 8 13 42 29 77 27 56 29 64 16 89 -18 35 -36 49 -73 56 -24 5
-33 2 -38 -10z m39 -112 c11 -12 -13 -44 -33 -44 -22 0 -34 15 -26 35 5 15 47
21 59 9z"/>
<path d="M2103 4194 c-4 -10 1 -22 12 -30 24 -18 13 -41 -24 -49 -30 -6 -81
-46 -81 -63 0 -6 10 -12 23 -16 13 -3 39 -22 59 -41 34 -35 36 -36 43 -15 4
13 0 31 -9 45 -9 13 -16 27 -16 30 0 3 21 15 47 26 44 19 62 34 63 51 0 7 -94
78 -104 78 -4 0 -9 -7 -13 -16z"/>
<path d="M2510 4176 c0 -2 7 -9 15 -16 9 -7 15 -8 15 -2 0 5 -7 12 -15 16 -8
3 -15 4 -15 2z"/>
<path d="M2250 4083 c-45 -17 -91 -94 -82 -138 5 -30 55 -75 82 -75 28 0 77
47 90 86 15 44 6 79 -27 110 -26 24 -36 27 -63 17z m48 -72 c6 -42 -64 -112
-82 -82 -15 23 45 116 68 108 6 -2 12 -14 14 -26z"/>
<path d="M2018 3992 c39 -35 40 -45 5 -71 -26 -19 -26 -20 -7 -21 20 0 74 44
74 61 0 11 -51 45 -80 53 -23 7 -23 5 8 -22z"/>
<path d="M2351 3909 c-41 -64 -49 -84 -40 -95 19 -23 32 -16 69 38 19 28 41
53 47 56 28 9 24 -31 -10 -87 -33 -56 -34 -60 -18 -75 21 -19 27 -14 80 71 40
65 39 102 -4 122 -16 8 -36 23 -43 33 -7 10 -17 18 -22 18 -4 0 -31 -36 -59
-81z"/>
<path d="M2575 3819 c-32 -17 -57 -58 -63 -106 -4 -36 -1 -48 18 -68 27 -29
47 -31 79 -9 31 22 13 39 -23 23 -23 -11 -29 -10 -37 2 -23 37 4 108 49 128
31 15 50 0 54 -42 4 -44 22 -40 26 4 3 30 -2 41 -24 58 -29 23 -48 25 -79 10z"/>
<path d="M2450 3715 c0 -8 7 -15 15 -15 8 0 15 7 15 15 0 8 -7 15 -15 15 -8 0
-15 -7 -15 -15z"/>
<path d="M2713 3713 c-34 -16 -73 -78 -73 -116 0 -42 36 -77 79 -77 72 0 127
103 91 170 -16 29 -62 40 -97 23z m73 -47 c17 -70 -66 -149 -106 -101 -17 20
-5 64 28 98 33 35 69 36 78 3z"/>
<path d="M2942 3648 c6 -18 28 -21 28 -4 0 9 -7 16 -16 16 -9 0 -14 -5 -12
-12z"/>
<path d="M2892 3583 c-7 -10 -34 -49 -61 -88 -38 -56 -54 -70 -74 -70 -37 0
-42 -11 -13 -30 23 -16 28 -16 49 -2 24 16 137 177 137 196 0 17 -24 13 -38
-6z"/>
<path d="M2949 3553 c-45 -51 -138 -203 -128 -209 6 -3 21 4 35 17 l24 23 20
-22 c32 -34 76 -29 115 12 57 61 54 142 -7 162 -13 4 -28 13 -33 21 -9 12 -13
12 -26 -4z m55 -49 c28 -11 20 -71 -14 -105 -70 -71 -114 10 -46 84 26 28 34
31 60 21z"/>
<path d="M2756 3485 c-6 -17 9 -29 24 -20 14 9 12 22 -4 28 -8 3 -17 -1 -20
-8z"/>
<path d="M3100 3453 c0 -17 27 -46 33 -36 4 6 -2 18 -13 28 -11 10 -20 14 -20
8z"/>
<path d="M1913 3366 c-50 -23 -73 -69 -73 -146 0 -37 6 -77 15 -93 8 -15 13
-33 11 -40 -1 -7 -1 -9 1 -5 2 4 13 -2 24 -13 22 -22 26 -37 4 -19 -8 7 -15 8
-15 3 0 -5 15 -17 33 -28 24 -14 52 -19 109 -20 68 0 79 3 103 25 41 38 56 76
56 136 0 69 -40 146 -94 182 -47 31 -127 39 -174 18z"/>
<path d="M791 3273 c0 -4 23 -26 52 -49 29 -22 94 -73 145 -114 51 -40 95 -70
98 -68 3 3 -55 52 -128 109 -164 129 -168 132 -167 122z"/>
<path d="M825 3200 c10 -11 20 -20 23 -20 3 0 -3 9 -13 20 -10 11 -20 20 -23
20 -3 0 3 -9 13 -20z"/>
<path d="M750 3193 c0 -5 24 -27 53 -48 28 -22 54 -42 57 -45 19 -22 180 -138
180 -131 0 5 -44 42 -97 83 -54 40 -107 81 -118 91 -34 32 -75 59 -75 50z"/>
<path d="M790 3196 c0 -2 8 -10 18 -17 15 -13 16 -12 3 4 -13 16 -21 21 -21
13z"/>
<path d="M860 3176 c0 -2 8 -10 18 -17 15 -13 16 -12 3 4 -13 16 -21 21 -21
13z"/>
<path d="M740 3157 c0 -2 15 -14 33 -27 20 -15 27 -17 18 -6 -13 16 -51 41
-51 33z"/>
<path d="M850 3146 c0 -2 8 -10 18 -17 15 -13 16 -12 3 4 -13 16 -21 21 -21
13z"/>
<path d="M710 3111 c0 -6 4 -11 8 -11 4 0 44 -29 87 -65 44 -36 85 -68 90 -73
6 -4 29 -22 53 -41 24 -18 45 -31 48 -28 3 2 -13 19 -36 37 -23 18 -39 35 -36
38 3 3 14 -1 23 -9 16 -13 17 -12 4 4 -8 10 -21 15 -29 12 -8 -3 -50 23 -100
63 -103 81 -112 86 -112 73z"/>
<path d="M825 3090 c10 -11 20 -20 23 -20 3 0 -3 9 -13 20 -10 11 -20 20 -23
20 -3 0 3 -9 13 -20z"/>
<path d="M960 3096 c0 -2 8 -10 18 -17 15 -13 16 -12 3 4 -13 16 -21 21 -21
13z"/>
<path d="M705 3075 c11 -8 25 -18 30 -23 117 -96 248 -193 253 -188 3 4 2 10
-4 14 -16 10 -168 126 -174 132 -23 25 -100 80 -111 80 -9 -1 -7 -5 6 -15z"/>
<path d="M1000 3066 c0 -2 8 -10 18 -17 15 -13 16 -12 3 4 -13 16 -21 21 -21
13z"/>
<path d="M674 3048 c-8 -13 -4 -17 151 -138 135 -106 136 -107 132 -80 -2 11
-10 26 -17 33 -12 10 -12 9 -1 -5 7 -10 10 -18 6 -18 -15 0 -75 51 -70 59 2 5
-5 17 -18 27 l-22 19 19 -22 c11 -13 16 -23 11 -23 -12 0 -136 102 -131 108 3
3 15 -3 26 -13 11 -10 20 -16 20 -12 0 3 -19 20 -42 38 -24 19 -37 26 -29 16
7 -9 9 -17 3 -17 -14 0 -33 25 -25 33 3 4 4 7 0 7 -3 0 -9 -5 -13 -12z"/>
<path d="M874 3052 c8 -13 66 -56 66 -49 0 3 -17 17 -37 33 -20 15 -33 23 -29
16z"/>
<path d="M980 3046 c0 -2 8 -10 18 -17 15 -13 16 -12 3 4 -13 16 -21 21 -21
13z"/>
<path d="M850 3036 c0 -2 8 -10 18 -17 15 -13 16 -12 3 4 -13 16 -21 21 -21
13z"/>
<path d="M650 3016 c0 -9 282 -227 291 -224 6 2 -20 26 -58 55 -37 28 -102 78
-143 112 -67 54 -90 69 -90 57z"/>
<path d="M1020 3016 c0 -2 8 -10 18 -17 15 -13 16 -12 3 4 -13 16 -21 21 -21
13z"/>
<path d="M950 2996 c0 -2 8 -10 18 -17 15 -13 16 -12 3 4 -13 16 -21 21 -21
13z"/>
<path d="M644 2982 c8 -13 66 -56 66 -49 0 3 -17 17 -37 33 -20 15 -33 23 -29
16z"/>
<path d="M805 2960 c10 -11 20 -20 23 -20 3 0 -3 9 -13 20 -10 11 -20 20 -23
20 -3 0 3 -9 13 -20z"/>
<path d="M631 2963 c4 -10 185 -158 246 -201 35 -25 51 -29 34 -9 -6 8 -9 16
-6 19 3 3 -5 13 -17 24 l-23 19 19 -22 c33 -39 7 -25 -81 45 -123 97 -176 135
-172 125z"/>
<path d="M990 2966 c0 -2 8 -10 18 -17 15 -13 16 -12 3 4 -13 16 -21 21 -21
13z"/>
<path d="M980 2936 c0 -2 8 -10 18 -17 15 -13 16 -12 3 4 -13 16 -21 21 -21
13z"/>
<path d="M597 2896 c-3 -8 4 -22 16 -33 19 -16 20 -16 8 0 -22 28 5 20 44 -14
19 -17 33 -34 30 -39 -2 -4 15 -22 38 -40 23 -19 33 -24 23 -12 -11 12 -15 22
-9 22 13 0 45 -35 38 -42 -3 -3 3 -11 12 -19 16 -13 17 -12 4 4 -16 20 -3 22
23 2 10 -7 15 -18 12 -23 -10 -16 21 -35 39 -24 14 7 -9 30 -124 120 -77 62
-143 112 -145 112 -2 0 -6 -6 -9 -14z m134 -103 c13 -15 12 -15 -8 -4 -24 12
-29 21 -14 21 5 0 15 -7 22 -17z m134 -103 c3 -5 2 -10 -4 -10 -5 0 -13 5 -16
10 -3 6 -2 10 4 10 5 0 13 -4 16 -10z"/>
<path d="M890 2896 c0 -2 8 -10 18 -17 15 -13 16 -12 3 4 -13 16 -21 21 -21
13z"/>
<path d="M690 2876 c0 -2 8 -10 18 -17 15 -13 16 -12 3 4 -13 16 -21 21 -21
13z"/>
<path d="M1025 2851 c-3 -6 1 -11 9 -11 8 0 20 -8 25 -17 6 -10 11 -13 11 -7
0 18 -37 47 -45 35z"/>
<path d="M655 2830 c10 -11 20 -20 23 -20 3 0 -3 9 -13 20 -10 11 -20 20 -23
20 -3 0 3 -9 13 -20z"/>
<path d="M733 2843 c9 -14 87 -77 87 -70 0 3 -21 22 -47 43 -26 21 -44 33 -40
27z"/>
<path d="M830 2836 c0 -2 8 -10 18 -17 15 -13 16 -12 3 4 -13 16 -21 21 -21
13z"/>
<path d="M1010 2810 c0 -5 9 -14 21 -20 19 -11 20 -10 9 9 -11 22 -30 29 -30
11z"/>
<path d="M830 2766 c0 -2 8 -10 18 -17 15 -13 16 -12 3 4 -13 16 -21 21 -21
13z"/>
<path d="M3025 2496 c-45 -20 -76 -59 -82 -105 -6 -45 12 -127 34 -152 7 -9
10 -19 7 -22 -11 -10 18 -38 32 -33 8 3 13 0 11 -6 -1 -8 23 -15 68 -21 88
-11 161 9 199 54 49 58 30 174 -41 241 -57 55 -160 74 -228 44z"/>
<path d="M2210 2315 c-19 -7 -71 -21 -115 -31 -139 -30 -189 -44 -199 -55 -8
-9 -6 -10 6 -6 10 4 17 3 15 -2 -3 -12 61 -63 72 -57 5 4 13 1 17 -5 5 -8 3
-9 -7 -4 -15 8 9 -15 51 -50 20 -17 23 -18 17 -2 -4 9 -2 17 3 17 6 0 10 -4
10 -8 0 -5 11 -15 25 -22 14 -8 24 -19 21 -26 -2 -6 3 -11 12 -10 9 0 17 -6
17 -14 1 -8 6 -14 13 -12 7 1 23 -8 35 -19 12 -12 15 -18 7 -14 -12 7 -13 6
-2 -6 7 -8 16 -14 20 -14 4 0 18 -10 30 -23 13 -13 26 -21 29 -19 2 3 0 74 -6
159 -6 84 -12 171 -14 192 -2 46 -10 50 -57 31z"/>
<path d="M2095 2070 c3 -5 8 -10 11 -10 2 0 4 5 4 10 0 6 -5 10 -11 10 -5 0
-7 -4 -4 -10z"/>
<path d="M1849 1729 c-10 -20 -8 -26 22 -50 36 -30 29 -40 -9 -13 -35 24 -37
10 -2 -19 39 -33 39 -45 -1 -17 -16 12 -31 21 -32 19 -1 -2 -8 -14 -14 -26 -7
-13 -13 -32 -13 -43 0 -18 -3 -19 -20 -10 -16 8 -20 21 -20 56 0 39 5 51 34
80 26 26 30 34 16 34 -25 0 -67 -36 -74 -64 -9 -36 9 -115 30 -131 16 -12 17
-17 6 -35 -7 -11 -10 -26 -6 -32 4 -5 1 -14 -5 -18 -9 -5 -3 -15 19 -34 18
-15 25 -26 17 -26 -8 0 -20 7 -27 15 -13 16 -34 15 -36 -1 0 -5 -4 -17 -9 -27
-4 -10 -4 -21 -1 -24 4 -4 9 3 13 15 7 27 19 28 57 3 17 -11 33 -18 38 -15 13
8 9 42 -4 47 -7 3 -3 6 10 6 17 1 22 7 22 26 0 14 5 25 10 25 6 0 10 9 10 20
0 12 -7 20 -16 20 -9 0 -23 8 -30 18 -22 29 -16 34 16 12 35 -25 54 -18 46 16
-4 16 -2 24 6 24 7 0 19 14 27 32 14 31 14 32 -25 65 -44 37 -39 45 6 11 16
-12 33 -18 37 -15 6 7 -1 14 -59 57 l-27 21 -12 -22z m34 -159 c-5 -19 -6 -19
-19 6 -18 34 -18 37 5 24 13 -6 17 -17 14 -30z m-46 -86 c-9 -10 -38 16 -31
28 4 6 13 4 22 -6 9 -8 13 -19 9 -22z m-13 -20 c9 -8 16 -18 16 -20 0 -7 -38
15 -45 26 -10 16 12 12 29 -6z"/>
<path d="M2230 1424 c0 -14 27 -37 67 -58 37 -18 53 -20 53 -6 0 6 -9 10 -21
10 -20 0 -77 34 -91 55 -5 7 -8 7 -8 -1z"/>
<path d="M1718 1342 c-20 -4 -24 -27 -6 -38 6 -4 8 -3 4 4 -11 19 12 23 37 7
13 -8 32 -13 41 -9 27 10 18 25 -11 18 -17 -5 -30 -2 -37 7 -6 8 -19 13 -28
11z"/>
<path d="M1664 1284 c3 -9 6 -22 6 -29 0 -8 7 -11 18 -8 21 5 64 -37 44 -44
-6 -3 -9 -9 -6 -14 7 -11 34 8 34 23 0 15 -75 88 -90 88 -7 0 -10 -7 -6 -16z"/>
<path d="M1746 1275 c23 -18 40 -19 50 -3 5 8 0 9 -14 6 -12 -4 -25 -2 -28 3
-3 5 -10 9 -17 9 -6 0 -2 -7 9 -15z"/>
<path d="M3191 1095 c-39 -41 -71 -79 -71 -83 0 -4 46 -45 102 -91 l102 -84
74 78 74 79 -34 30 c-18 17 -65 57 -105 88 l-71 57 -71 -74z m108 26 c12 -8
13 -12 1 -26 -12 -14 -15 -14 -28 -1 -8 8 -11 19 -8 25 9 13 16 14 35 2z m41
-46 c0 -19 -13 -25 -30 -15 -11 7 -11 11 -1 24 15 17 31 13 31 -9z m-53 -12
c3 -10 19 -30 36 -44 36 -31 29 -54 -13 -45 -30 6 -68 -24 -55 -43 11 -19 -11
-12 -30 9 -15 16 -15 20 -3 20 8 0 23 9 32 19 17 18 16 20 -11 33 -30 14 -38
48 -13 60 27 12 51 8 57 -9z m91 -12 c10 -6 10 -10 -3 -21 -18 -15 -42 0 -31
19 8 13 16 14 34 2z m41 -35 c8 -10 8 -16 -3 -25 -10 -9 -16 -8 -26 3 -12 15
-6 36 9 36 5 0 14 -6 20 -14z"/>
<path d="M3261 1037 c-13 -21 -12 -21 5 -5 10 10 16 20 13 22 -3 3 -11 -5 -18
-17z"/>
<path d="M2117 598 c-29 -66 -29 -73 1 -42 33 33 48 74 27 74 -8 0 -21 -15
-28 -32z"/>
<path d="M940 417 c0 -8 15 -33 33 -55 56 -69 147 -117 147 -77 0 8 -7 15 -15
15 -8 0 -28 12 -44 28 -32 30 -64 57 -98 85 -19 15 -23 16 -23 4z"/>
<path d="M1170 329 c0 -5 5 -7 10 -4 6 3 10 8 10 11 0 2 -4 4 -10 4 -5 0 -10
-5 -10 -11z"/>
<path d="M1452 108 c-19 -19 -15 -48 8 -48 26 0 37 27 18 46 -11 11 -16 12
-26 2z"/>
<path d="M1522 48 c-17 -17 -15 -48 3 -48 14 0 35 29 35 49 0 15 -23 14 -38
-1z"/>
</g>
</svg>
