<?xml version="1.0" encoding="UTF-8"?>
<svg version="1.1" xmlns="http://www.w3.org/2000/svg" xmlns:xlink="http://www.w3.org/1999/xlink" preserveAspectRatio="xMidYMid meet" viewBox="170.67832167832162 222.49650349650344 300.6433566433568 160.99300699300701" width="296.64" height="156.99"><defs><style>path{fill:#000;}@media(prefers-color-scheme:dark){path{fill:#fff;}}</style><path d="M236.68 256C236.68 273.93 222.12 288.5 204.18 288.5C186.24 288.5 171.68 273.93 171.68 256C171.68 238.06 186.24 223.5 204.18 223.5C222.12 223.5 236.68 238.06 236.68 256Z" id="bngw91Re"></path><path d="M468.32 256C468.32 273.93 453.76 288.5 435.82 288.5C417.88 288.5 403.32 273.93 403.32 256C403.32 238.06 417.88 223.5 435.82 223.5C453.76 223.5 468.32 238.06 468.32 256Z" id="c2LVfrESIS"></path><path d="M339.93 355.84L359.86 380.49L320 380.49L280.14 380.49L300.07 355.84L320 331.19L339.93 355.84Z" id="bHML90UTB"></path></defs><g><g><use xlink:href="#bngw91Re" opacity="1" fill="#000" fill-opacity="1"></use></g><g><use xlink:href="#c2LVfrESIS" opacity="1" fill="#000" fill-opacity="1"></use></g><g><use xlink:href="#bHML90UTB" opacity="1" fill="#000" fill-opacity="1"></use></g></g></svg>